# xmcd
#
# Track frame offsets: 
#        150
#        14244
#        25029
#        35402
#        46516
#        57967
#        70064
#        81236
#        94193
#        104125
#        117084
#        128821
#        141688
#        154428
#        166854
#        179243
#        193873
#        206192
#        221173
#        235760
#        244944
#        256806
#        268108
#        280207
#        290794
#        301700
#        313537
#        325411
#
# Disc length: 4465 seconds
#
# Revision: 0
# Processed by: cddbd v1.5.1PL2 Copyright (c) Steve Scherf et al.
# Submitted via: ExactAudioCopy v0.95b1
#
DISCID=b5116f1c
DTITLE=The Osborne Brothers - 1968-1974 Disc 1
DYEAR=1900
DGENRE=Bluegrass
TTITLE0=I'll Never Love Another
TTITLE1=I'll Go Steppin' Too
TTITLE2=Will You Be Lovin' Another Man
TTITLE3=I'll Never Shed Another Tear
TTITLE4=My Little Girl In Tennessee
TTITLE5=Molly And Tenbrokks
TTITLE6=Drivin' Nails In My Coffin
TTITLE7=World Of Forgotten People
TTITLE8=Cut The Cornbread, Mama
TTITLE9=If I Could Count On You
TTITLE10=I Bowed On My Knees And Cried Holy
TTITLE11=Steal Away And Pray
TTITLE12=Will You Meet Me Over Yonder
TTITLE13=Where We'll Never Grow Old
TTITLE14=Medals For Mother
TTITLE15=Hide Me O Blest Rock Of Ages
TTITLE16=I Pray My Way Out Of Trouble
TTITLE17=How Great Thou Art
TTITLE18=What A Friend We Have In Jesus
TTITLE19=Jesus Sure Changed Me
TTITLE20=Light At The River
TTITLE21=That Was Yesterday
TTITLE22=Working Man
TTITLE23=Banjo Ringing Saturday Night
TTITLE24=Thanks For All The Yesterdays
TTITLE25=Midnight Angel
TTITLE26=Son Of A Sawmill Man
TTITLE27=No Good Sun Of A Gun
EXTD=
EXTT0=
EXTT1=
EXTT2=
EXTT3=
EXTT4=
EXTT5=
EXTT6=
EXTT7=
EXTT8=
EXTT9=
EXTT10=
EXTT11=
EXTT12=
EXTT13=
EXTT14=
EXTT15=
EXTT16=
EXTT17=
EXTT18=
EXTT19=
EXTT20=
EXTT21=
EXTT22=
EXTT23=
EXTT24=
EXTT25=
EXTT26=
EXTT27=
PLAYORDER=
